# xmcd
#
# Track frame offsets:
#	150
#	8937
#	23606
#	35506
#	50502
#	61223
#	73011
#	86192
#	99062
#	111152
#	122097
#	133025
#	144645
#	151887
#	168730
#	194495
#
# Disc length: 2739 seconds
#
# Revision: 0
# Processed by: cddbd v1.5.2PL0 Copyright (c) Steve Scherf et al.
# Submitted via: EZCDAudioConverter 7.0.6.1
#
DISCID=dc0ab110
DTITLE=The Fuzztones - Leave Your Mind At Home
DYEAR=1900
DGENRE=
TTITLE0=Voices Green And Purple
TTITLE1=Blackout Of Gretely
TTITLE2=No Friend Of Mine
TTITLE3=We're Pretty Quick
TTITLE4=My Flash On You
TTITLE5=The Bag I'm In
TTITLE6=You Burn Me Up And Down
TTITLE7=Brand New Man [Single B-Side]
TTITLE8=Bad News Travels Fast [Single A-Side]
TTITLE9=Green Slime
TTITLE10=99th Floor [Demo]
TTITLE11=Riot On Sunset Strip [Demo]
TTITLE12=Don't Do It Some More [Demo]
TTITLE13=Fabian Lips [Demo]
TTITLE14=Ward 81
TTITLE15=The Witch [Demo]
EXTD=
EXTT0=
EXTT1=
EXTT2=
EXTT3=
EXTT4=
EXTT5=
EXTT6=
EXTT7=
EXTT8=
EXTT9=
EXTT10=
EXTT11=
EXTT12=
EXTT13=
EXTT14=
EXTT15=
PLAYORDER=
